<?xml version="1.0" encoding="UTF-8" standalone="no"?>
<svg
   xmlns:dc="http://purl.org/dc/elements/1.1/"
   xmlns:cc="http://creativecommons.org/ns#"
   xmlns:rdf="http://www.w3.org/1999/02/22-rdf-syntax-ns#"
   xmlns:svg="http://www.w3.org/2000/svg"
   xmlns="http://www.w3.org/2000/svg"
   xmlns:sodipodi="http://sodipodi.sourceforge.net/DTD/sodipodi-0.dtd"
   xmlns:inkscape="http://www.inkscape.org/namespaces/inkscape"
   inkscape:version="1.0 (4035a4fb49, 2020-05-01)"
   sodipodi:docname="wwu.svg"
   id="svg38"
   version="1.1"
   viewBox="0 0 15.420402 10.753472"
   height="139.47"
   width="199.99899">
  <metadata
     id="metadata44">
    <rdf:RDF>
      <cc:Work
         rdf:about="">
        <dc:format>image/svg+xml</dc:format>
        <dc:type
           rdf:resource="http://purl.org/dc/dcmitype/StillImage" />
        <dc:title></dc:title>
      </cc:Work>
    </rdf:RDF>
  </metadata>
  <defs
     id="defs42" />
  <sodipodi:namedview
     inkscape:current-layer="svg38"
     inkscape:window-maximized="1"
     inkscape:window-y="-6"
     inkscape:window-x="-6"
     inkscape:cy="62.087192"
     inkscape:cx="102.33972"
     inkscape:zoom="1.8834403"
     showgrid="false"
     id="namedview40"
     inkscape:window-height="890"
     inkscape:window-width="1368"
     inkscape:pageshadow="2"
     inkscape:pageopacity="0"
     guidetolerance="10"
     gridtolerance="10"
     objecttolerance="10"
     borderopacity="1"
     bordercolor="#666666"
     pagecolor="#ffffff" />
  <path
     id="path76"
     d="M 12.91104,10.636779 C 12.559053,10.553819 12.25952,10.314329 12.123682,10.007244 12.025462,9.7851967 11.986169,9.2932897 11.985471,8.2768858 11.98511,7.7785792 11.969811,7.3313358 11.951441,7.283011 11.917001,7.19243 11.755136,7.1143695 11.601747,7.1143695 c -0.06622,0 -0.08457,-0.01951 -0.08457,-0.089936 v -0.089936 h 0.717365 c 0.394551,0 0.726467,0.014728 0.737592,0.032728 0.02862,0.046311 -0.0157,0.147105 -0.0648,0.1473446 -0.02262,1.079e-4 -0.100373,0.016657 -0.172782,0.036771 -0.195659,0.054345 -0.2102,0.1327229 -0.209382,1.1285715 0.001,1.2330591 0.05501,1.5174611 0.340803,1.7950194 0.326334,0.316933 1.010319,0.377344 1.389488,0.122725 0.162858,-0.109369 0.307979,-0.3871913 0.351536,-0.6730003 0.05119,-0.335887 0.07583,-1.3516955 0.04443,-1.8306625 C 14.6203,7.2192443 14.591066,7.1741479 14.287431,7.1323877 14.127522,7.1103943 14.107337,7.0978259 14.107337,7.0202468 v -0.087371 l 0.656533,0.0098 c 0.610252,0.00911 0.656532,0.014479 0.656532,0.076076 0,0.047584 -0.0507,0.083088 -0.179805,0.1259108 -0.122929,0.040776 -0.192944,0.088086 -0.221345,0.1495755 -0.02501,0.054126 -0.05667,0.4981644 -0.07955,1.1152062 -0.04214,1.1364514 -0.08117,1.3833974 -0.267782,1.6942947 -0.237777,0.39613 -0.633814,0.574687 -1.260874,0.568479 -0.200722,-0.002 -0.425721,-0.01793 -0.499999,-0.03545 z M 1.4788211,10.486969 C 1.103252,9.0603437 0.68875148,7.6510736 0.56447748,7.3782712 0.47147448,7.1741132 0.41140738,7.1283743 0.18975028,7.0929303 c -0.1090723,-0.017441 -0.1484032,-0.040611 -0.1484032,-0.087423 0,-0.058805 0.053826,-0.063598 0.7015007,-0.062447 0.64400482,0.00114 0.70150082,0.00642 0.70150082,0.064286 0,0.04321 -0.038471,0.070258 -0.1222963,0.085985 -0.2121061,0.03979 -0.2184578,0.076238 -0.095697,0.5491311 0.1750888,0.6744682 0.5936282,2.0980386 0.6168379,2.0980386 0.023581,0 0.1505801,-0.356089 0.5940751,-1.6657041 0.1661866,-0.4907401 0.3021576,-0.9156875 0.3021576,-0.9443279 0,-0.036438 0.040504,-0.051653 0.1349042,-0.050675 l 0.1349042,0.0014 0.2808592,0.8529944 C 3.660965,9.0605505 3.9309143,9.7866757 3.9656077,9.7512177 3.9993815,9.7166997 4.3905502,8.4144784 4.5397153,7.839985 4.7020015,7.2149547 4.6826714,7.1360179 4.3567407,7.0927817 4.2197394,7.0746096 4.1784028,7.0545048 4.1784028,7.0060473 c 0,-0.057882 0.053352,-0.062866 0.6475391,-0.060492 0.581806,0.00232 0.6475392,0.00873 0.6475392,0.063115 0,0.043058 -0.042629,0.067345 -0.1476977,0.084146 -0.2579209,0.041244 -0.3197457,0.1410093 -0.5827913,0.94043 -0.2401266,0.7297689 -0.6693677,2.1316017 -0.7465407,2.4380837 -0.041024,0.162924 -0.04689,0.168531 -0.1762871,0.168531 h -0.13385 L 3.486886,10.03729 C 3.1872873,9.1320504 2.7629967,7.9417807 2.7399083,7.9417807 c -0.011213,0 -0.2304006,0.6067952 -0.4870917,1.348434 L 1.7861054,10.63865 1.6525878,10.639253 c -0.1269388,5.76e-4 -0.1355005,-0.0069 -0.1737667,-0.152284 z m 5.705689,-0.124183 C 7.0910188,9.9635077 6.581358,8.1719837 6.4284837,7.705254 6.3576807,7.4890899 6.2781128,7.2840704 6.2516667,7.2496552 6.1957797,7.1769272 5.976397,7.0783952 5.8703549,7.0783952 c -0.047816,0 -0.073104,-0.023624 -0.073104,-0.06829 0,-0.064779 0.036073,-0.068227 0.7015008,-0.067045 0.6310865,0.00112 0.7015007,0.00728 0.7015007,0.061381 0,0.041448 -0.047509,0.070666 -0.1528911,0.094026 -0.1498864,0.033223 -0.1528398,0.036765 -0.1502767,0.1801453 0.00343,0.1917701 0.6675064,2.5170722 0.7011853,2.4552352 0.033347,-0.06122 0.554523,-1.5617603 0.7567534,-2.1787914 L 8.5112474,7.0783952 h 0.11908 c 0.0655,0 0.124912,0.020235 0.132041,0.044968 0.129395,0.4490112 0.846124,2.5154805 0.918153,2.6472195 0.02809,0.05138 0.4387996,-1.2852925 0.6246096,-2.0328174 0.102409,-0.4119971 0.105385,-0.4431146 0.0504,-0.5270376 -0.04422,-0.067483 -0.102583,-0.095261 -0.23983,-0.1141355 -0.1404256,-0.019313 -0.1813916,-0.039378 -0.1813916,-0.088845 0,-0.058891 0.04932,-0.063666 0.6295516,-0.060954 0.567432,0.00265 0.629552,0.00898 0.629552,0.064111 0,0.043027 -0.04145,0.068172 -0.139756,0.08478 -0.17052,0.02881 -0.277885,0.1237296 -0.361721,0.3197916 -0.07732,0.1808335 -0.500948,1.5177324 -0.7766296,2.4509369 -0.111056,0.3759313 -0.208742,0.7047333 -0.217079,0.7306693 -0.0098,0.03037 -0.06149,0.04317 -0.145288,0.03597 l -0.130134,-0.01123 -0.25981,-0.7734493 C 8.7933934,8.7481392 8.4831434,7.8889213 8.4692244,7.9270811 8.4626634,7.945059 8.2487738,8.5587415 7.9939056,9.2908207 L 7.530509,10.621873 7.3903529,10.632663 7.2501968,10.643303 Z M 3.5414153,6.0896971 C 2.6035167,5.964059 1.5876569,5.678777 0.75184138,5.3063065 0.61828648,5.2467893 0.50901428,5.1876435 0.50901428,5.174871 c 0,-0.012773 0.2711569,0.04458 0.60257112,0.1274506 C 2.1607147,5.5646559 3.1741256,5.7006729 3.7883911,5.6615942 4.5172982,5.6152217 5.873611,5.2011965 7.4492381,4.5440903 8.8570804,3.9569579 9.3487884,3.8109012 10.365999,3.6776967 c 0.472179,-0.061833 1.476274,-0.081313 1.861922,-0.036123 l 0.225088,0.026375 -0.07446,-0.1737103 C 12.288321,3.2837331 12.144011,2.7384602 12.11322,2.4916597 12.09412,2.3385968 12.09763,2.3218683 12.13674,2.3794225 c 0.198202,0.2916585 0.706285,0.9467163 0.884488,1.1403459 l 0.217815,0.2366727 0.506095,0.064688 c 0.278351,0.03558 0.506093,0.072495 0.506093,0.082035 0,0.00954 -0.176104,0.00585 -0.391343,-0.00822 -0.232298,-0.015175 -0.399739,-0.011971 -0.412005,0.00787 -0.02221,0.035943 0.276823,0.3375631 0.569514,0.5744369 0.281438,0.2277655 0.772526,0.5362109 1.116528,0.7012748 0.358661,0.1720976 0.347302,0.2023471 -0.07756,0.2065413 C 14.707243,5.3885271 14.215879,5.2977981 13.927568,5.176662 13.454651,4.9779624 13.000444,4.5995395 12.740309,4.1874931 12.667639,4.0723862 12.587696,3.9873236 12.551251,3.9863256 12.442659,3.9833542 11.502551,4.1921128 11.111382,4.3060629 10.501103,4.4838407 9.9585534,4.6802134 8.8201274,5.1353669 7.3441386,5.7254815 6.8151556,5.8966851 5.9771226,6.0554962 5.5526527,6.1359349 4.0446558,6.1571095 3.5414153,6.0896971 Z M 1.9839645,5.3276821 C 1.3884814,5.2689078 0.65665988,5.070791 0.24819988,4.8577806 0.01688498,4.7371508 -0.08801902,4.6343839 0.08877058,4.7015992 0.27344078,4.7718107 0.88237748,4.884212 1.2770587,4.9209408 1.8034098,4.9699225 2.1990896,4.9293149 2.8726832,4.7571853 3.5452793,4.5853105 4.1949549,4.3592859 5.0957498,3.9837718 6.4429109,3.4221813 6.793604,3.3221573 7.9355091,3.1738226 c 0.3888173,-0.050507 1.2283593,-0.019497 1.9404693,0.071675 0.3933176,0.050358 0.7468596,0.091559 0.7856496,0.091559 0.0621,0 0.04819,-0.041921 -0.116349,-0.3507504 C 10.314295,2.5527703 9.9610044,2.0080863 9.6644384,1.6282742 9.4073564,1.2990299 8.8464204,0.74587638 8.5940494,0.57273608 8.3685289,0.41801718 7.9464593,0.22099008 7.7218809,0.16559788 7.485447,0.10728141 7.4384444,0.0642638 7.6365827,0.08753154 c 0.2784911,0.0327043 0.6173502,0.12490774 0.9300077,0.25305444 0.65716,0.2693465 1.185469,0.6486071 1.8729976,1.34457982 0.397839,0.4027266 0.515907,0.5016827 0.6377,0.5344782 0.186824,0.050306 0.331486,-0.00398 0.509903,-0.1913619 0.06819,-0.07161 0.13923,-0.1302005 0.157889,-0.1302005 0.01964,0 0.02568,0.090817 0.01429,0.2157921 -0.038,0.4190262 -0.321306,0.8483277 -0.75684,1.1468461 -0.166384,0.1140393 -0.188094,0.118953 -0.581393,0.13159 C 9.6946224,3.4156522 8.7090504,3.612716 7.8013811,3.9161377 7.5681029,3.9941191 6.9367523,4.2337597 6.3983795,4.4486722 4.9261011,5.0363895 4.2913444,5.2249089 3.4873133,5.3132445 3.1657221,5.3485764 2.281676,5.3570662 1.9839645,5.3276821 Z M 0.82412678,4.6872119 C 0.69075698,4.6594846 0.56292878,4.6252366 0.54006398,4.6111055 0.51719728,4.596973 0.69540758,4.5168422 0.93612858,4.4330183 2.6809344,3.8254417 4.6450806,2.3858766 6.1740814,0.59401018 c 0.097079,-0.113769 0.1902333,-0.2068528 0.2070089,-0.2068528 0.045992,0 -0.3664327,0.79050012 -0.6545142,1.25451942 C 4.7422867,3.2270914 3.5826581,4.2615822 2.3898219,4.6183552 1.9977532,4.7356212 1.22124,4.7697713 0.82412678,4.6872119 Z"
     style="fill:#000000;stroke-width:0.0359744" />
</svg>
